<?xml version="1.0" encoding="UTF-8" standalone="no"?>
<!DOCTYPE svg PUBLIC "-//W3C//DTD SVG 1.1//EN"
 "http://www.w3.org/Graphics/SVG/1.1/DTD/svg11.dtd">
<!-- Generated by graphviz version 2.44.0 (20200408.0750)
 -->
<!-- Title: classes_Pyreverse Pages: 1 -->
<svg width="2827pt" height="333pt"
 viewBox="0.00 0.00 2826.50 333.00" xmlns="http://www.w3.org/2000/svg" xmlns:xlink="http://www.w3.org/1999/xlink">
<g id="graph0" class="graph" transform="scale(1 1) rotate(0) translate(4 329)">
<title>classes_Pyreverse</title>
<polygon fill="white" stroke="transparent" points="-4,4 -4,-329 2822.5,-329 2822.5,4 -4,4"/>
<!-- 0 -->
<g id="node1" class="node">
<title>0</title>
<polygon fill="none" stroke="black" points="0,-68 0,-257 135,-257 135,-68 0,-68"/>
<text text-anchor="middle" x="67.5" y="-241.8" font-family="Times,serif" font-size="14.00">ActivityLog</text>
<polyline fill="none" stroke="black" points="0,-234 135,-234 "/>
<text text-anchor="start" x="8" y="-218.8" font-family="Times,serif" font-size="14.00">date_time : Column</text>
<text text-anchor="start" x="8" y="-203.8" font-family="Times,serif" font-size="14.00">description : Column</text>
<text text-anchor="start" x="8" y="-188.8" font-family="Times,serif" font-size="14.00">id : Column</text>
<text text-anchor="start" x="8" y="-173.8" font-family="Times,serif" font-size="14.00">person : Column</text>
<text text-anchor="start" x="8" y="-158.8" font-family="Times,serif" font-size="14.00">person1</text>
<text text-anchor="start" x="8" y="-143.8" font-family="Times,serif" font-size="14.00">table_name : Column</text>
<text text-anchor="start" x="8" y="-128.8" font-family="Times,serif" font-size="14.00">table_ref</text>
<polyline fill="none" stroke="black" points="0,-121 135,-121 "/>
<text text-anchor="start" x="8" y="-105.8" font-family="Times,serif" font-size="14.00">delete()</text>
<text text-anchor="start" x="8" y="-90.8" font-family="Times,serif" font-size="14.00">insert()</text>
<text text-anchor="start" x="8" y="-75.8" font-family="Times,serif" font-size="14.00">update()</text>
</g>
<!-- 1 -->
<g id="node2" class="node">
<title>1</title>
<polygon fill="none" stroke="black" points="153.5,-98 153.5,-227 257.5,-227 257.5,-98 153.5,-98"/>
<text text-anchor="middle" x="205.5" y="-211.8" font-family="Times,serif" font-size="14.00">Branch</text>
<polyline fill="none" stroke="black" points="153.5,-204 257.5,-204 "/>
<text text-anchor="start" x="161.5" y="-188.8" font-family="Times,serif" font-size="14.00">active : Column</text>
<text text-anchor="start" x="161.5" y="-173.8" font-family="Times,serif" font-size="14.00">id : Column</text>
<text text-anchor="start" x="161.5" y="-158.8" font-family="Times,serif" font-size="14.00">name : Column</text>
<polyline fill="none" stroke="black" points="153.5,-151 257.5,-151 "/>
<text text-anchor="start" x="161.5" y="-135.8" font-family="Times,serif" font-size="14.00">delete()</text>
<text text-anchor="start" x="161.5" y="-120.8" font-family="Times,serif" font-size="14.00">insert()</text>
<text text-anchor="start" x="161.5" y="-105.8" font-family="Times,serif" font-size="14.00">update()</text>
</g>
<!-- 2 -->
<g id="node3" class="node">
<title>2</title>
<polygon fill="none" stroke="black" points="275.5,-53 275.5,-272 419.5,-272 419.5,-53 275.5,-53"/>
<text text-anchor="middle" x="347.5" y="-256.8" font-family="Times,serif" font-size="14.00">Card</text>
<polyline fill="none" stroke="black" points="275.5,-249 419.5,-249 "/>
<text text-anchor="start" x="283.5" y="-233.8" font-family="Times,serif" font-size="14.00">active : Column</text>
<text text-anchor="start" x="283.5" y="-218.8" font-family="Times,serif" font-size="14.00">card_month : Column</text>
<text text-anchor="start" x="283.5" y="-203.8" font-family="Times,serif" font-size="14.00">card_number : Column</text>
<text text-anchor="start" x="283.5" y="-188.8" font-family="Times,serif" font-size="14.00">card_type : Column</text>
<text text-anchor="start" x="283.5" y="-173.8" font-family="Times,serif" font-size="14.00">card_year : Column</text>
<text text-anchor="start" x="283.5" y="-158.8" font-family="Times,serif" font-size="14.00">customer : Column</text>
<text text-anchor="start" x="283.5" y="-143.8" font-family="Times,serif" font-size="14.00">customer1</text>
<text text-anchor="start" x="283.5" y="-128.8" font-family="Times,serif" font-size="14.00">cvv : Column</text>
<text text-anchor="start" x="283.5" y="-113.8" font-family="Times,serif" font-size="14.00">id : Column</text>
<polyline fill="none" stroke="black" points="275.5,-106 419.5,-106 "/>
<text text-anchor="start" x="283.5" y="-90.8" font-family="Times,serif" font-size="14.00">delete()</text>
<text text-anchor="start" x="283.5" y="-75.8" font-family="Times,serif" font-size="14.00">insert()</text>
<text text-anchor="start" x="283.5" y="-60.8" font-family="Times,serif" font-size="14.00">update()</text>
</g>
<!-- 3 -->
<g id="node4" class="node">
<title>3</title>
<polygon fill="none" stroke="black" points="437.5,-105.5 437.5,-219.5 569.5,-219.5 569.5,-105.5 437.5,-105.5"/>
<text text-anchor="middle" x="503.5" y="-204.3" font-family="Times,serif" font-size="14.00">Code</text>
<polyline fill="none" stroke="black" points="437.5,-196.5 569.5,-196.5 "/>
<text text-anchor="start" x="445.5" y="-181.3" font-family="Times,serif" font-size="14.00">description : Column</text>
<text text-anchor="start" x="445.5" y="-166.3" font-family="Times,serif" font-size="14.00">id : Column</text>
<polyline fill="none" stroke="black" points="437.5,-158.5 569.5,-158.5 "/>
<text text-anchor="start" x="445.5" y="-143.3" font-family="Times,serif" font-size="14.00">delete()</text>
<text text-anchor="start" x="445.5" y="-128.3" font-family="Times,serif" font-size="14.00">insert()</text>
<text text-anchor="start" x="445.5" y="-113.3" font-family="Times,serif" font-size="14.00">update()</text>
</g>
<!-- 4 -->
<g id="node5" class="node">
<title>4</title>
<polygon fill="none" stroke="black" points="588,-60.5 588,-264.5 723,-264.5 723,-60.5 588,-60.5"/>
<text text-anchor="middle" x="655.5" y="-249.3" font-family="Times,serif" font-size="14.00">Consecutive</text>
<polyline fill="none" stroke="black" points="588,-241.5 723,-241.5 "/>
<text text-anchor="start" x="596" y="-226.3" font-family="Times,serif" font-size="14.00">code</text>
<text text-anchor="start" x="596" y="-211.3" font-family="Times,serif" font-size="14.00">description : Column</text>
<text text-anchor="start" x="596" y="-196.3" font-family="Times,serif" font-size="14.00">id : Column</text>
<text text-anchor="start" x="596" y="-181.3" font-family="Times,serif" font-size="14.00">prefix : Column</text>
<text text-anchor="start" x="596" y="-166.3" font-family="Times,serif" font-size="14.00">table_name : Column</text>
<text text-anchor="start" x="596" y="-151.3" font-family="Times,serif" font-size="14.00">table_ref</text>
<text text-anchor="start" x="596" y="-136.3" font-family="Times,serif" font-size="14.00">type : Column</text>
<text text-anchor="start" x="596" y="-121.3" font-family="Times,serif" font-size="14.00">value : Column</text>
<polyline fill="none" stroke="black" points="588,-113.5 723,-113.5 "/>
<text text-anchor="start" x="596" y="-98.3" font-family="Times,serif" font-size="14.00">delete()</text>
<text text-anchor="start" x="596" y="-83.3" font-family="Times,serif" font-size="14.00">insert()</text>
<text text-anchor="start" x="596" y="-68.3" font-family="Times,serif" font-size="14.00">update()</text>
</g>
<!-- 5 -->
<g id="node6" class="node">
<title>5</title>
<polygon fill="none" stroke="black" points="741.5,-83 741.5,-242 845.5,-242 845.5,-83 741.5,-83"/>
<text text-anchor="middle" x="793.5" y="-226.8" font-family="Times,serif" font-size="14.00">Customer</text>
<polyline fill="none" stroke="black" points="741.5,-219 845.5,-219 "/>
<text text-anchor="start" x="749.5" y="-203.8" font-family="Times,serif" font-size="14.00">active : Column</text>
<text text-anchor="start" x="749.5" y="-188.8" font-family="Times,serif" font-size="14.00">id : Column</text>
<text text-anchor="start" x="749.5" y="-173.8" font-family="Times,serif" font-size="14.00">photo : Column</text>
<polyline fill="none" stroke="black" points="741.5,-166 845.5,-166 "/>
<text text-anchor="start" x="749.5" y="-150.8" font-family="Times,serif" font-size="14.00">authenticate()</text>
<text text-anchor="start" x="749.5" y="-135.8" font-family="Times,serif" font-size="14.00">delete()</text>
<text text-anchor="start" x="749.5" y="-120.8" font-family="Times,serif" font-size="14.00">insert()</text>
<text text-anchor="start" x="749.5" y="-105.8" font-family="Times,serif" font-size="14.00">placeOrder()</text>
<text text-anchor="start" x="749.5" y="-90.8" font-family="Times,serif" font-size="14.00">update()</text>
</g>
<!-- 6 -->
<g id="node7" class="node">
<title>6</title>
<polygon fill="none" stroke="black" points="863.5,-68 863.5,-257 989.5,-257 989.5,-68 863.5,-68"/>
<text text-anchor="middle" x="926.5" y="-241.8" font-family="Times,serif" font-size="14.00">CustomerOrder</text>
<polyline fill="none" stroke="black" points="863.5,-234 989.5,-234 "/>
<text text-anchor="start" x="871.5" y="-218.8" font-family="Times,serif" font-size="14.00">customer : Column</text>
<text text-anchor="start" x="871.5" y="-203.8" font-family="Times,serif" font-size="14.00">customer1</text>
<text text-anchor="start" x="871.5" y="-188.8" font-family="Times,serif" font-size="14.00">date_time : Column</text>
<text text-anchor="start" x="871.5" y="-173.8" font-family="Times,serif" font-size="14.00">id : Column</text>
<text text-anchor="start" x="871.5" y="-158.8" font-family="Times,serif" font-size="14.00">project : Column</text>
<text text-anchor="start" x="871.5" y="-143.8" font-family="Times,serif" font-size="14.00">project1</text>
<text text-anchor="start" x="871.5" y="-128.8" font-family="Times,serif" font-size="14.00">status : Column</text>
<polyline fill="none" stroke="black" points="863.5,-121 989.5,-121 "/>
<text text-anchor="start" x="871.5" y="-105.8" font-family="Times,serif" font-size="14.00">delete()</text>
<text text-anchor="start" x="871.5" y="-90.8" font-family="Times,serif" font-size="14.00">insert()</text>
<text text-anchor="start" x="871.5" y="-75.8" font-family="Times,serif" font-size="14.00">update()</text>
</g>
<!-- 7 -->
<g id="node8" class="node">
<title>7</title>
<polygon fill="none" stroke="black" points="1007.5,-90.5 1007.5,-234.5 1139.5,-234.5 1139.5,-90.5 1007.5,-90.5"/>
<text text-anchor="middle" x="1073.5" y="-219.3" font-family="Times,serif" font-size="14.00">Degree</text>
<polyline fill="none" stroke="black" points="1007.5,-211.5 1139.5,-211.5 "/>
<text text-anchor="start" x="1015.5" y="-196.3" font-family="Times,serif" font-size="14.00">active : Column</text>
<text text-anchor="start" x="1015.5" y="-181.3" font-family="Times,serif" font-size="14.00">description : Column</text>
<text text-anchor="start" x="1015.5" y="-166.3" font-family="Times,serif" font-size="14.00">id : Column</text>
<text text-anchor="start" x="1015.5" y="-151.3" font-family="Times,serif" font-size="14.00">name : Column</text>
<polyline fill="none" stroke="black" points="1007.5,-143.5 1139.5,-143.5 "/>
<text text-anchor="start" x="1015.5" y="-128.3" font-family="Times,serif" font-size="14.00">delete()</text>
<text text-anchor="start" x="1015.5" y="-113.3" font-family="Times,serif" font-size="14.00">insert()</text>
<text text-anchor="start" x="1015.5" y="-98.3" font-family="Times,serif" font-size="14.00">update()</text>
</g>
<!-- 8 -->
<g id="node9" class="node">
<title>8</title>
<polygon fill="none" stroke="black" points="1158,-75.5 1158,-249.5 1265,-249.5 1265,-75.5 1158,-75.5"/>
<text text-anchor="middle" x="1211.5" y="-234.3" font-family="Times,serif" font-size="14.00">Equipment</text>
<polyline fill="none" stroke="black" points="1158,-226.5 1265,-226.5 "/>
<text text-anchor="start" x="1166" y="-211.3" font-family="Times,serif" font-size="14.00">active : Column</text>
<text text-anchor="start" x="1166" y="-196.3" font-family="Times,serif" font-size="14.00">brand : Column</text>
<text text-anchor="start" x="1166" y="-181.3" font-family="Times,serif" font-size="14.00">id : Column</text>
<text text-anchor="start" x="1166" y="-166.3" font-family="Times,serif" font-size="14.00">model : Column</text>
<text text-anchor="start" x="1166" y="-151.3" font-family="Times,serif" font-size="14.00">name : Column</text>
<text text-anchor="start" x="1166" y="-136.3" font-family="Times,serif" font-size="14.00">serial : Column</text>
<polyline fill="none" stroke="black" points="1158,-128.5 1265,-128.5 "/>
<text text-anchor="start" x="1166" y="-113.3" font-family="Times,serif" font-size="14.00">delete()</text>
<text text-anchor="start" x="1166" y="-98.3" font-family="Times,serif" font-size="14.00">insert()</text>
<text text-anchor="start" x="1166" y="-83.3" font-family="Times,serif" font-size="14.00">update()</text>
</g>
<!-- 9 -->
<g id="node10" class="node">
<title>9</title>
<polygon fill="none" stroke="black" points="1283,-60.5 1283,-264.5 1418,-264.5 1418,-60.5 1283,-60.5"/>
<text text-anchor="middle" x="1350.5" y="-249.3" font-family="Times,serif" font-size="14.00">ErrorLog</text>
<polyline fill="none" stroke="black" points="1283,-241.5 1418,-241.5 "/>
<text text-anchor="start" x="1291" y="-226.3" font-family="Times,serif" font-size="14.00">date_time : Column</text>
<text text-anchor="start" x="1291" y="-211.3" font-family="Times,serif" font-size="14.00">description : Column</text>
<text text-anchor="start" x="1291" y="-196.3" font-family="Times,serif" font-size="14.00">id : Column</text>
<text text-anchor="start" x="1291" y="-181.3" font-family="Times,serif" font-size="14.00">person : Column</text>
<text text-anchor="start" x="1291" y="-166.3" font-family="Times,serif" font-size="14.00">person1</text>
<text text-anchor="start" x="1291" y="-151.3" font-family="Times,serif" font-size="14.00">summary : Column</text>
<text text-anchor="start" x="1291" y="-136.3" font-family="Times,serif" font-size="14.00">table_name : Column</text>
<text text-anchor="start" x="1291" y="-121.3" font-family="Times,serif" font-size="14.00">table_ref</text>
<polyline fill="none" stroke="black" points="1283,-113.5 1418,-113.5 "/>
<text text-anchor="start" x="1291" y="-98.3" font-family="Times,serif" font-size="14.00">delete()</text>
<text text-anchor="start" x="1291" y="-83.3" font-family="Times,serif" font-size="14.00">insert()</text>
<text text-anchor="start" x="1291" y="-68.3" font-family="Times,serif" font-size="14.00">update()</text>
</g>
<!-- 10 -->
<g id="node11" class="node">
<title>10</title>
<polygon fill="none" stroke="black" points="1436.5,-30.5 1436.5,-294.5 1592.5,-294.5 1592.5,-30.5 1436.5,-30.5"/>
<text text-anchor="middle" x="1514.5" y="-279.3" font-family="Times,serif" font-size="14.00">Experiment</text>
<polyline fill="none" stroke="black" points="1436.5,-271.5 1592.5,-271.5 "/>
<text text-anchor="start" x="1444.5" y="-256.3" font-family="Times,serif" font-size="14.00">active : Column</text>
<text text-anchor="start" x="1444.5" y="-241.3" font-family="Times,serif" font-size="14.00">date : Column</text>
<text text-anchor="start" x="1444.5" y="-226.3" font-family="Times,serif" font-size="14.00">description : Column</text>
<text text-anchor="start" x="1444.5" y="-211.3" font-family="Times,serif" font-size="14.00">experimenter : Column</text>
<text text-anchor="start" x="1444.5" y="-196.3" font-family="Times,serif" font-size="14.00">id : Column</text>
<text text-anchor="start" x="1444.5" y="-181.3" font-family="Times,serif" font-size="14.00">main_objective : Column</text>
<text text-anchor="start" x="1444.5" y="-166.3" font-family="Times,serif" font-size="14.00">name : Column</text>
<text text-anchor="start" x="1444.5" y="-151.3" font-family="Times,serif" font-size="14.00">person</text>
<text text-anchor="start" x="1444.5" y="-136.3" font-family="Times,serif" font-size="14.00">person1</text>
<text text-anchor="start" x="1444.5" y="-121.3" font-family="Times,serif" font-size="14.00">project : Column</text>
<text text-anchor="start" x="1444.5" y="-106.3" font-family="Times,serif" font-size="14.00">project1</text>
<text text-anchor="start" x="1444.5" y="-91.3" font-family="Times,serif" font-size="14.00">witness : Column</text>
<polyline fill="none" stroke="black" points="1436.5,-83.5 1592.5,-83.5 "/>
<text text-anchor="start" x="1444.5" y="-68.3" font-family="Times,serif" font-size="14.00">delete()</text>
<text text-anchor="start" x="1444.5" y="-53.3" font-family="Times,serif" font-size="14.00">insert()</text>
<text text-anchor="start" x="1444.5" y="-38.3" font-family="Times,serif" font-size="14.00">update()</text>
</g>
<!-- 11 -->
<g id="node12" class="node">
<title>11</title>
<polygon fill="none" stroke="black" points="1610.5,-83 1610.5,-242 1744.5,-242 1744.5,-83 1610.5,-83"/>
<text text-anchor="middle" x="1677.5" y="-226.8" font-family="Times,serif" font-size="14.00">ExperimentImage</text>
<polyline fill="none" stroke="black" points="1610.5,-219 1744.5,-219 "/>
<text text-anchor="start" x="1618.5" y="-203.8" font-family="Times,serif" font-size="14.00">active : Column</text>
<text text-anchor="start" x="1618.5" y="-188.8" font-family="Times,serif" font-size="14.00">experiment : Column</text>
<text text-anchor="start" x="1618.5" y="-173.8" font-family="Times,serif" font-size="14.00">experiment1</text>
<text text-anchor="start" x="1618.5" y="-158.8" font-family="Times,serif" font-size="14.00">id : Column</text>
<text text-anchor="start" x="1618.5" y="-143.8" font-family="Times,serif" font-size="14.00">photo : Column</text>
<polyline fill="none" stroke="black" points="1610.5,-136 1744.5,-136 "/>
<text text-anchor="start" x="1618.5" y="-120.8" font-family="Times,serif" font-size="14.00">delete()</text>
<text text-anchor="start" x="1618.5" y="-105.8" font-family="Times,serif" font-size="14.00">insert()</text>
<text text-anchor="start" x="1618.5" y="-90.8" font-family="Times,serif" font-size="14.00">update()</text>
</g>
<!-- 12 -->
<g id="node13" class="node">
<title>12</title>
<polygon fill="none" stroke="black" points="1762.5,-83 1762.5,-242 1884.5,-242 1884.5,-83 1762.5,-83"/>
<text text-anchor="middle" x="1823.5" y="-226.8" font-family="Times,serif" font-size="14.00">Job</text>
<polyline fill="none" stroke="black" points="1762.5,-219 1884.5,-219 "/>
<text text-anchor="start" x="1770.5" y="-203.8" font-family="Times,serif" font-size="14.00">active : Column</text>
<text text-anchor="start" x="1770.5" y="-188.8" font-family="Times,serif" font-size="14.00">id : Column</text>
<text text-anchor="start" x="1770.5" y="-173.8" font-family="Times,serif" font-size="14.00">name : Column</text>
<text text-anchor="start" x="1770.5" y="-158.8" font-family="Times,serif" font-size="14.00">user_role : Column</text>
<text text-anchor="start" x="1770.5" y="-143.8" font-family="Times,serif" font-size="14.00">user_role1</text>
<polyline fill="none" stroke="black" points="1762.5,-136 1884.5,-136 "/>
<text text-anchor="start" x="1770.5" y="-120.8" font-family="Times,serif" font-size="14.00">delete()</text>
<text text-anchor="start" x="1770.5" y="-105.8" font-family="Times,serif" font-size="14.00">insert()</text>
<text text-anchor="start" x="1770.5" y="-90.8" font-family="Times,serif" font-size="14.00">update()</text>
</g>
<!-- 13 -->
<g id="node14" class="node">
<title>13</title>
<polygon fill="none" stroke="black" points="1902.5,-75.5 1902.5,-249.5 2036.5,-249.5 2036.5,-75.5 1902.5,-75.5"/>
<text text-anchor="middle" x="1969.5" y="-234.3" font-family="Times,serif" font-size="14.00">Methodology</text>
<polyline fill="none" stroke="black" points="1902.5,-226.5 2036.5,-226.5 "/>
<text text-anchor="start" x="1910.5" y="-211.3" font-family="Times,serif" font-size="14.00">active : Column</text>
<text text-anchor="start" x="1910.5" y="-196.3" font-family="Times,serif" font-size="14.00">description : Column</text>
<text text-anchor="start" x="1910.5" y="-181.3" font-family="Times,serif" font-size="14.00">experiment : Column</text>
<text text-anchor="start" x="1910.5" y="-166.3" font-family="Times,serif" font-size="14.00">experiment1</text>
<text text-anchor="start" x="1910.5" y="-151.3" font-family="Times,serif" font-size="14.00">id : Column</text>
<text text-anchor="start" x="1910.5" y="-136.3" font-family="Times,serif" font-size="14.00">step : Column</text>
<polyline fill="none" stroke="black" points="1902.5,-128.5 2036.5,-128.5 "/>
<text text-anchor="start" x="1910.5" y="-113.3" font-family="Times,serif" font-size="14.00">delete()</text>
<text text-anchor="start" x="1910.5" y="-98.3" font-family="Times,serif" font-size="14.00">insert()</text>
<text text-anchor="start" x="1910.5" y="-83.3" font-family="Times,serif" font-size="14.00">update()</text>
</g>
<!-- 14 -->
<g id="node15" class="node">
<title>14</title>
<polygon fill="none" stroke="black" points="2054.5,-83 2054.5,-242 2188.5,-242 2188.5,-83 2054.5,-83"/>
<text text-anchor="middle" x="2121.5" y="-226.8" font-family="Times,serif" font-size="14.00">Objective</text>
<polyline fill="none" stroke="black" points="2054.5,-219 2188.5,-219 "/>
<text text-anchor="start" x="2062.5" y="-203.8" font-family="Times,serif" font-size="14.00">active : Column</text>
<text text-anchor="start" x="2062.5" y="-188.8" font-family="Times,serif" font-size="14.00">description : Column</text>
<text text-anchor="start" x="2062.5" y="-173.8" font-family="Times,serif" font-size="14.00">experiment : Column</text>
<text text-anchor="start" x="2062.5" y="-158.8" font-family="Times,serif" font-size="14.00">experiment1</text>
<text text-anchor="start" x="2062.5" y="-143.8" font-family="Times,serif" font-size="14.00">id : Column</text>
<polyline fill="none" stroke="black" points="2054.5,-136 2188.5,-136 "/>
<text text-anchor="start" x="2062.5" y="-120.8" font-family="Times,serif" font-size="14.00">delete()</text>
<text text-anchor="start" x="2062.5" y="-105.8" font-family="Times,serif" font-size="14.00">insert()</text>
<text text-anchor="start" x="2062.5" y="-90.8" font-family="Times,serif" font-size="14.00">update()</text>
</g>
<!-- 15 -->
<g id="node16" class="node">
<title>15</title>
<polygon fill="none" stroke="black" points="2207,-0.5 2207,-324.5 2370,-324.5 2370,-0.5 2207,-0.5"/>
<text text-anchor="middle" x="2288.5" y="-309.3" font-family="Times,serif" font-size="14.00">Person</text>
<polyline fill="none" stroke="black" points="2207,-301.5 2370,-301.5 "/>
<text text-anchor="start" x="2215" y="-286.3" font-family="Times,serif" font-size="14.00">active : Column</text>
<text text-anchor="start" x="2215" y="-271.3" font-family="Times,serif" font-size="14.00">degree : Column</text>
<text text-anchor="start" x="2215" y="-256.3" font-family="Times,serif" font-size="14.00">degree1</text>
<text text-anchor="start" x="2215" y="-241.3" font-family="Times,serif" font-size="14.00">first_surname : Column</text>
<text text-anchor="start" x="2215" y="-226.3" font-family="Times,serif" font-size="14.00">id : Column</text>
<text text-anchor="start" x="2215" y="-211.3" font-family="Times,serif" font-size="14.00">isAdmin : Column</text>
<text text-anchor="start" x="2215" y="-196.3" font-family="Times,serif" font-size="14.00">job : Column</text>
<text text-anchor="start" x="2215" y="-181.3" font-family="Times,serif" font-size="14.00">job1</text>
<text text-anchor="start" x="2215" y="-166.3" font-family="Times,serif" font-size="14.00">name : Column</text>
<text text-anchor="start" x="2215" y="-151.3" font-family="Times,serif" font-size="14.00">nickname : Column</text>
<text text-anchor="start" x="2215" y="-136.3" font-family="Times,serif" font-size="14.00">password : Column</text>
<text text-anchor="start" x="2215" y="-121.3" font-family="Times,serif" font-size="14.00">phone : Column</text>
<text text-anchor="start" x="2215" y="-106.3" font-family="Times,serif" font-size="14.00">photo : Column</text>
<text text-anchor="start" x="2215" y="-91.3" font-family="Times,serif" font-size="14.00">second_surname : Column</text>
<text text-anchor="start" x="2215" y="-76.3" font-family="Times,serif" font-size="14.00">signature : Column</text>
<polyline fill="none" stroke="black" points="2207,-68.5 2370,-68.5 "/>
<text text-anchor="start" x="2215" y="-53.3" font-family="Times,serif" font-size="14.00">authenticate()</text>
<text text-anchor="start" x="2215" y="-38.3" font-family="Times,serif" font-size="14.00">delete()</text>
<text text-anchor="start" x="2215" y="-23.3" font-family="Times,serif" font-size="14.00">insert()</text>
<text text-anchor="start" x="2215" y="-8.3" font-family="Times,serif" font-size="14.00">update()</text>
</g>
<!-- 16 -->
<g id="node17" class="node">
<title>16</title>
<polygon fill="none" stroke="black" points="2388.5,-45.5 2388.5,-279.5 2504.5,-279.5 2504.5,-45.5 2388.5,-45.5"/>
<text text-anchor="middle" x="2446.5" y="-264.3" font-family="Times,serif" font-size="14.00">Project</text>
<polyline fill="none" stroke="black" points="2388.5,-256.5 2504.5,-256.5 "/>
<text text-anchor="start" x="2396.5" y="-241.3" font-family="Times,serif" font-size="14.00">active : Column</text>
<text text-anchor="start" x="2396.5" y="-226.3" font-family="Times,serif" font-size="14.00">branch : Column</text>
<text text-anchor="start" x="2396.5" y="-211.3" font-family="Times,serif" font-size="14.00">branch1</text>
<text text-anchor="start" x="2396.5" y="-196.3" font-family="Times,serif" font-size="14.00">id : Column</text>
<text text-anchor="start" x="2396.5" y="-181.3" font-family="Times,serif" font-size="14.00">journals : Column</text>
<text text-anchor="start" x="2396.5" y="-166.3" font-family="Times,serif" font-size="14.00">name : Column</text>
<text text-anchor="start" x="2396.5" y="-151.3" font-family="Times,serif" font-size="14.00">person : Column</text>
<text text-anchor="start" x="2396.5" y="-136.3" font-family="Times,serif" font-size="14.00">person1</text>
<text text-anchor="start" x="2396.5" y="-121.3" font-family="Times,serif" font-size="14.00">price : Column</text>
<polyline fill="none" stroke="black" points="2388.5,-113.5 2504.5,-113.5 "/>
<text text-anchor="start" x="2396.5" y="-98.3" font-family="Times,serif" font-size="14.00">delete()</text>
<text text-anchor="start" x="2396.5" y="-83.3" font-family="Times,serif" font-size="14.00">insert()</text>
<text text-anchor="start" x="2396.5" y="-68.3" font-family="Times,serif" font-size="14.00">purchase()</text>
<text text-anchor="start" x="2396.5" y="-53.3" font-family="Times,serif" font-size="14.00">update()</text>
</g>
<!-- 17 -->
<g id="node18" class="node">
<title>17</title>
<polygon fill="none" stroke="black" points="2522.5,-90.5 2522.5,-234.5 2668.5,-234.5 2668.5,-90.5 2522.5,-90.5"/>
<text text-anchor="middle" x="2595.5" y="-219.3" font-family="Times,serif" font-size="14.00">TableRef</text>
<polyline fill="none" stroke="black" points="2522.5,-211.5 2668.5,-211.5 "/>
<text text-anchor="start" x="2530.5" y="-196.3" font-family="Times,serif" font-size="14.00">current_value : Column</text>
<text text-anchor="start" x="2530.5" y="-181.3" font-family="Times,serif" font-size="14.00">description : Column</text>
<text text-anchor="start" x="2530.5" y="-166.3" font-family="Times,serif" font-size="14.00">isHidden : Column</text>
<text text-anchor="start" x="2530.5" y="-151.3" font-family="Times,serif" font-size="14.00">name : Column</text>
<polyline fill="none" stroke="black" points="2522.5,-143.5 2668.5,-143.5 "/>
<text text-anchor="start" x="2530.5" y="-128.3" font-family="Times,serif" font-size="14.00">delete()</text>
<text text-anchor="start" x="2530.5" y="-113.3" font-family="Times,serif" font-size="14.00">insert()</text>
<text text-anchor="start" x="2530.5" y="-98.3" font-family="Times,serif" font-size="14.00">update()</text>
</g>
<!-- 18 -->
<g id="node19" class="node">
<title>18</title>
<polygon fill="none" stroke="black" points="2686.5,-90.5 2686.5,-234.5 2818.5,-234.5 2818.5,-90.5 2686.5,-90.5"/>
<text text-anchor="middle" x="2752.5" y="-219.3" font-family="Times,serif" font-size="14.00">UserRole</text>
<polyline fill="none" stroke="black" points="2686.5,-211.5 2818.5,-211.5 "/>
<text text-anchor="start" x="2694.5" y="-196.3" font-family="Times,serif" font-size="14.00">active : Column</text>
<text text-anchor="start" x="2694.5" y="-181.3" font-family="Times,serif" font-size="14.00">description : Column</text>
<text text-anchor="start" x="2694.5" y="-166.3" font-family="Times,serif" font-size="14.00">id : Column</text>
<text text-anchor="start" x="2694.5" y="-151.3" font-family="Times,serif" font-size="14.00">name : Column</text>
<polyline fill="none" stroke="black" points="2686.5,-143.5 2818.5,-143.5 "/>
<text text-anchor="start" x="2694.5" y="-128.3" font-family="Times,serif" font-size="14.00">delete()</text>
<text text-anchor="start" x="2694.5" y="-113.3" font-family="Times,serif" font-size="14.00">insert()</text>
<text text-anchor="start" x="2694.5" y="-98.3" font-family="Times,serif" font-size="14.00">update()</text>
</g>
</g>
</svg>
